<?xml version="1.0" standalone="no"?>
<!DOCTYPE svg PUBLIC "-//W3C//DTD SVG 20010904//EN"
 "http://www.w3.org/TR/2001/REC-SVG-20010904/DTD/svg10.dtd">
<svg version="1.0" xmlns="http://www.w3.org/2000/svg"
 width="1081.000000pt" height="1080.000000pt" viewBox="0 0 1081.000000 1080.000000"
 preserveAspectRatio="xMidYMid meet">
<metadata>
Created by potrace 1.15, written by Peter Selinger 2001-2017
</metadata>
<g transform="translate(0.000000,1080.000000) scale(0.100000,-0.100000)"
fill="#000000" stroke="none">
<path d="M4337 8784 c-4 -4 -7 -47 -7 -95 l0 -88 -530 -431 -530 -432 0 -60 0
-60 43 34 c23 19 261 213 530 431 l487 397 0 -148 0 -148 -529 -430 -530 -429
0 -62 -1 -63 488 397 c268 218 506 412 530 431 l42 34 -1 -153 0 -154 -530
-429 -529 -429 0 -60 c0 -46 3 -57 13 -50 6 6 243 197 525 426 282 230 514
417 517 417 3 0 5 -66 5 -147 l0 -148 -530 -430 -530 -430 0 -57 c0 -32 2 -58
4 -58 3 0 236 188 519 419 283 230 520 421 526 425 8 5 11 -35 11 -143 l0
-150 -526 -427 c-290 -236 -528 -433 -531 -440 -2 -6 -3 -34 -1 -62 l3 -50
405 330 c223 181 460 374 528 429 l122 99 0 -129 0 -130 -394 -321 -394 -320
-141 0 -140 0 -3 -122 c-2 -68 0 -476 3 -908 6 -857 5 -841 68 -1086 206 -787
853 -1398 1651 -1558 115 -23 313 -46 403 -46 l37 0 0 644 0 644 -47 6 c-488
69 -834 502 -791 991 27 311 218 589 503 732 76 39 203 79 278 88 l57 7 -2
1632 c-3 1551 -4 1633 -21 1678 -26 66 -88 132 -155 165 l-57 28 -420 3 c-231
2 -424 0 -428 -4z m-7 -2526 l0 -153 -133 -107 -132 -108 -185 0 c-127 0 -181
3 -174 10 12 12 618 508 622 509 1 1 2 -68 2 -151z"/>
<path d="M3415 8663 l-140 -116 -3 -59 c-2 -32 0 -58 3 -58 7 0 425 341 425
346 0 2 -33 4 -72 3 l-73 -1 -140 -115z"/>
<path d="M3650 8473 l-375 -305 -3 -59 c-2 -32 -1 -59 2 -59 5 0 854 686 886
716 12 12 3 14 -60 13 l-75 0 -375 -306z"/>
<path d="M5540 5920 l0 -640 29 0 c90 0 259 -54 378 -121 103 -58 263 -215
322 -316 183 -310 175 -682 -19 -972 -137 -204 -346 -347 -582 -395 -42 -9
-89 -16 -103 -16 l-25 0 0 -645 0 -645 38 0 c117 0 436 43 497 66 13 5 15 -36
15 -345 l0 -351 1035 0 1035 0 0 780 0 780 -405 0 c-223 0 -405 2 -405 4 0 2
28 48 62 102 216 344 328 739 328 1157 0 268 -29 452 -110 697 -159 487 -482
897 -925 1175 -309 194 -743 325 -1081 325 l-84 0 0 -640z m1770 -2838 c0 -18
-162 -203 -262 -297 -233 -222 -516 -393 -816 -491 -57 -19 -110 -34 -118 -34
-12 0 -14 60 -14 415 l0 415 605 0 c333 0 605 -4 605 -8z"/>
</g>
</svg>
